<svg xmlns="http://www.w3.org/2000/svg" xmlns:xlink="http://www.w3.org/1999/xlink" width="1080" zoomAndPan="magnify" viewBox="0 0 810 809.999993" height="1080" preserveAspectRatio="xMidYMid meet" version="1.0"><defs><clipPath id="b9fc47e212"><path d="M 510.019531 190.601562 L 556 190.601562 L 556 236 L 510.019531 236 Z M 510.019531 190.601562 " clip-rule="nonzero"/></clipPath><clipPath id="52a0f91945"><path d="M 560 190.601562 L 605.269531 190.601562 L 605.269531 236 L 560 236 Z M 560 190.601562 " clip-rule="nonzero"/></clipPath><clipPath id="08f8b08db4"><path d="M 510.019531 241 L 556 241 L 556 286.601562 L 510.019531 286.601562 Z M 510.019531 241 " clip-rule="nonzero"/></clipPath><clipPath id="a5f350ceb9"><path d="M 560 241 L 605.269531 241 L 605.269531 286.601562 L 560 286.601562 Z M 560 241 " clip-rule="nonzero"/></clipPath><clipPath id="b2934c3161"><path d="M 664.570312 681.035156 L 710 681.035156 L 710 727 L 664.570312 727 Z M 664.570312 681.035156 " clip-rule="nonzero"/></clipPath><clipPath id="4fde564df4"><path d="M 715 681.035156 L 759.820312 681.035156 L 759.820312 727 L 715 727 Z M 715 681.035156 " clip-rule="nonzero"/></clipPath><clipPath id="7298d35fe0"><path d="M 664.570312 731 L 710 731 L 710 777 L 664.570312 777 Z M 664.570312 731 " clip-rule="nonzero"/></clipPath><clipPath id="c0a8a2a502"><path d="M 715 731 L 759.820312 731 L 759.820312 777 L 715 777 Z M 715 731 " clip-rule="nonzero"/></clipPath><clipPath id="e8949306bb"><path d="M 194.160156 513.019531 L 240 513.019531 L 240 559 L 194.160156 559 Z M 194.160156 513.019531 " clip-rule="nonzero"/></clipPath><clipPath id="0127e82522"><path d="M 244 513.019531 L 289.410156 513.019531 L 289.410156 559 L 244 559 Z M 244 513.019531 " clip-rule="nonzero"/></clipPath><clipPath id="f52a619bc6"><path d="M 194.160156 563 L 240 563 L 240 609 L 194.160156 609 Z M 194.160156 563 " clip-rule="nonzero"/></clipPath><clipPath id="8202030f23"><path d="M 244 563 L 289.410156 563 L 289.410156 609 L 244 609 Z M 244 563 " clip-rule="nonzero"/></clipPath><clipPath id="aa8af49e6c"><path d="M 46.851562 33.035156 L 92 33.035156 L 92 79 L 46.851562 79 Z M 46.851562 33.035156 " clip-rule="nonzero"/></clipPath><clipPath id="e93407a451"><path d="M 97 33.035156 L 142.101562 33.035156 L 142.101562 79 L 97 79 Z M 97 33.035156 " clip-rule="nonzero"/></clipPath><clipPath id="f5e5aaec49"><path d="M 46.851562 83 L 92 83 L 92 129 L 46.851562 129 Z M 46.851562 83 " clip-rule="nonzero"/></clipPath><clipPath id="73a578f471"><path d="M 97 83 L 142.101562 83 L 142.101562 129 L 97 129 Z M 97 83 " clip-rule="nonzero"/></clipPath><clipPath id="25d84728bf"><path d="M 81 260.5 L 225.75 260.5 L 225.75 405.25 L 81 405.25 Z M 81 260.5 " clip-rule="nonzero"/></clipPath><clipPath id="962158c631"><path d="M 493.007812 481 L 619 481 L 619 640 L 493.007812 640 Z M 493.007812 481 " clip-rule="nonzero"/></clipPath></defs><rect x="-81" width="972" fill="#ffffff" y="-80.999999" height="971.999992" fill-opacity="1"/><rect x="-81" width="972" fill="#000000" y="-80.999999" height="971.999992" fill-opacity="1"/><g clip-path="url(#b9fc47e212)"><path fill="#1b1b1b" d="M 543.46875 235.636719 L 521.589844 235.636719 C 515.210938 235.636719 510.019531 230.445312 510.019531 224.066406 L 510.019531 202.1875 C 510.019531 195.808594 515.210938 190.617188 521.589844 190.617188 L 543.46875 190.617188 C 549.847656 190.617188 555.035156 195.808594 555.035156 202.1875 L 555.035156 224.066406 C 555.035156 230.445312 549.847656 235.636719 543.46875 235.636719 Z M 543.46875 235.636719 " fill-opacity="1" fill-rule="nonzero"/></g><g clip-path="url(#52a0f91945)"><path fill="#1b1b1b" d="M 594.015625 235.636719 L 572.136719 235.636719 C 565.757812 235.636719 560.566406 230.445312 560.566406 224.066406 L 560.566406 202.1875 C 560.566406 195.808594 565.757812 190.617188 572.136719 190.617188 L 594.015625 190.617188 C 600.394531 190.617188 605.585938 195.808594 605.585938 202.1875 L 605.585938 224.066406 C 605.585938 230.445312 600.394531 235.636719 594.015625 235.636719 Z M 594.015625 235.636719 " fill-opacity="1" fill-rule="nonzero"/></g><g clip-path="url(#08f8b08db4)"><path fill="#1b1b1b" d="M 543.46875 286.496094 L 521.589844 286.496094 C 515.210938 286.496094 510.019531 281.308594 510.019531 274.929688 L 510.019531 253.050781 C 510.019531 246.671875 515.210938 241.480469 521.589844 241.480469 L 543.46875 241.480469 C 549.847656 241.480469 555.035156 246.671875 555.035156 253.050781 L 555.035156 274.929688 C 555.035156 281.308594 549.847656 286.496094 543.46875 286.496094 Z M 543.46875 286.496094 " fill-opacity="1" fill-rule="nonzero"/></g><g clip-path="url(#a5f350ceb9)"><path fill="#1b1b1b" d="M 594.015625 286.496094 L 572.136719 286.496094 C 565.757812 286.496094 560.566406 281.308594 560.566406 274.929688 L 560.566406 253.050781 C 560.566406 246.671875 565.757812 241.480469 572.136719 241.480469 L 594.015625 241.480469 C 600.394531 241.480469 605.585938 246.671875 605.585938 253.050781 L 605.585938 274.929688 C 605.585938 281.308594 600.394531 286.496094 594.015625 286.496094 Z M 594.015625 286.496094 " fill-opacity="1" fill-rule="nonzero"/></g><path fill="#545454" d="M 539.4375 210.839844 L 534.910156 210.792969 L 534.957031 206.269531 C 534.96875 204.964844 533.925781 203.898438 532.621094 203.886719 C 531.320312 203.871094 530.253906 204.917969 530.238281 206.21875 L 530.195312 210.746094 L 525.667969 210.699219 C 525.65625 210.699219 525.644531 210.699219 525.632812 210.699219 C 524.347656 210.703125 523.296875 211.742188 523.285156 213.035156 C 523.269531 214.335938 524.316406 215.402344 525.621094 215.417969 L 530.144531 215.464844 L 530.097656 219.988281 C 530.085938 221.292969 531.128906 222.359375 532.433594 222.371094 C 532.445312 222.371094 532.457031 222.371094 532.464844 222.371094 C 533.753906 222.367188 534.800781 221.328125 534.816406 220.039062 L 534.863281 215.511719 L 539.386719 215.558594 C 539.398438 215.558594 539.410156 215.558594 539.421875 215.558594 C 540.707031 215.554688 541.757812 214.515625 541.769531 213.222656 C 541.785156 211.921875 540.738281 210.855469 539.4375 210.839844 Z M 539.4375 210.839844 " fill-opacity="1" fill-rule="nonzero"/><path fill="#545454" d="M 535.863281 263.996094 L 539.070312 260.800781 C 539.992188 259.882812 539.996094 258.386719 539.074219 257.464844 C 538.15625 256.542969 536.664062 256.539062 535.738281 257.460938 L 532.535156 260.652344 L 529.339844 257.449219 C 529.332031 257.441406 529.324219 257.433594 529.316406 257.425781 C 528.394531 256.523438 526.917969 256.53125 526.003906 257.441406 C 525.082031 258.363281 525.078125 259.855469 526 260.777344 L 529.191406 263.984375 L 525.988281 267.179688 C 525.0625 268.097656 525.0625 269.589844 525.980469 270.515625 C 525.988281 270.523438 525.996094 270.53125 526.003906 270.539062 C 526.925781 271.4375 528.402344 271.429688 529.316406 270.519531 L 532.523438 267.324219 L 535.71875 270.53125 C 535.726562 270.539062 535.734375 270.546875 535.742188 270.554688 C 536.664062 271.453125 538.136719 271.449219 539.054688 270.535156 C 539.976562 269.617188 539.976562 268.125 539.058594 267.199219 Z M 535.863281 263.996094 " fill-opacity="1" fill-rule="nonzero"/><path fill="#545454" d="M 589.300781 215.476562 C 589.289062 215.476562 589.277344 215.476562 589.265625 215.476562 L 575.496094 215.453125 C 574.195312 215.449219 573.140625 214.394531 573.144531 213.089844 C 573.144531 211.796875 574.1875 210.75 575.472656 210.734375 C 575.484375 210.734375 575.496094 210.734375 575.507812 210.734375 L 589.273438 210.757812 C 590.578125 210.761719 591.632812 211.820312 591.628906 213.121094 C 591.628906 214.414062 590.585938 215.460938 589.300781 215.476562 Z M 589.300781 215.476562 " fill-opacity="1" fill-rule="nonzero"/><path fill="#545454" d="M 589.320312 266.046875 C 589.308594 266.046875 589.300781 266.046875 589.289062 266.046875 L 576.863281 266.007812 C 575.6875 266.003906 574.734375 264.945312 574.734375 263.644531 C 574.734375 262.351562 575.671875 261.304688 576.832031 261.292969 C 576.84375 261.292969 576.851562 261.292969 576.863281 261.292969 L 589.292969 261.332031 C 590.46875 261.335938 591.421875 262.394531 591.417969 263.695312 C 591.417969 264.988281 590.480469 266.035156 589.320312 266.046875 Z M 589.320312 266.046875 " fill-opacity="1" fill-rule="nonzero"/><path fill="#545454" d="M 586.316406 256.449219 C 586.316406 256.878906 586.230469 257.289062 586.066406 257.6875 C 585.902344 258.082031 585.667969 258.433594 585.367188 258.738281 C 585.0625 259.039062 584.710938 259.273438 584.316406 259.4375 C 583.917969 259.601562 583.507812 259.6875 583.078125 259.6875 C 582.648438 259.6875 582.234375 259.601562 581.835938 259.4375 C 581.441406 259.273438 581.089844 259.039062 580.785156 258.738281 C 580.484375 258.433594 580.25 258.082031 580.085938 257.6875 C 579.921875 257.289062 579.839844 256.878906 579.839844 256.449219 C 579.839844 256.019531 579.921875 255.605469 580.085938 255.207031 C 580.25 254.8125 580.484375 254.460938 580.785156 254.15625 C 581.089844 253.855469 581.441406 253.621094 581.835938 253.457031 C 582.234375 253.292969 582.648438 253.210938 583.078125 253.210938 C 583.507812 253.210938 583.917969 253.292969 584.316406 253.457031 C 584.710938 253.621094 585.0625 253.855469 585.367188 254.15625 C 585.667969 254.460938 585.902344 254.8125 586.066406 255.207031 C 586.230469 255.605469 586.316406 256.019531 586.316406 256.449219 Z M 586.316406 256.449219 " fill-opacity="1" fill-rule="nonzero"/><path fill="#545454" d="M 586.316406 271.53125 C 586.316406 271.960938 586.230469 272.375 586.066406 272.769531 C 585.902344 273.167969 585.667969 273.515625 585.367188 273.820312 C 585.0625 274.125 584.710938 274.359375 584.316406 274.523438 C 583.917969 274.6875 583.507812 274.769531 583.078125 274.769531 C 582.648438 274.769531 582.234375 274.6875 581.835938 274.523438 C 581.441406 274.359375 581.089844 274.125 580.785156 273.820312 C 580.484375 273.515625 580.25 273.167969 580.085938 272.769531 C 579.921875 272.375 579.839844 271.960938 579.839844 271.53125 C 579.839844 271.101562 579.921875 270.6875 580.085938 270.292969 C 580.25 269.894531 580.484375 269.546875 580.785156 269.242188 C 581.089844 268.9375 581.441406 268.703125 581.835938 268.539062 C 582.234375 268.375 582.648438 268.292969 583.078125 268.292969 C 583.507812 268.292969 583.917969 268.375 584.316406 268.539062 C 584.710938 268.703125 585.0625 268.9375 585.367188 269.242188 C 585.667969 269.546875 585.902344 269.894531 586.066406 270.292969 C 586.230469 270.6875 586.316406 271.101562 586.316406 271.53125 Z M 586.316406 271.53125 " fill-opacity="1" fill-rule="nonzero"/><g clip-path="url(#b2934c3161)"><path fill="#1b1b1b" d="M 698.019531 726.074219 L 676.140625 726.074219 C 669.761719 726.074219 664.570312 720.882812 664.570312 714.503906 L 664.570312 692.625 C 664.570312 686.246094 669.761719 681.054688 676.140625 681.054688 L 698.019531 681.054688 C 704.398438 681.054688 709.589844 686.246094 709.589844 692.625 L 709.589844 714.503906 C 709.589844 720.882812 704.398438 726.074219 698.019531 726.074219 Z M 698.019531 726.074219 " fill-opacity="1" fill-rule="nonzero"/></g><g clip-path="url(#4fde564df4)"><path fill="#1b1b1b" d="M 748.566406 726.074219 L 726.6875 726.074219 C 720.308594 726.074219 715.121094 720.882812 715.121094 714.503906 L 715.121094 692.625 C 715.121094 686.246094 720.308594 681.054688 726.6875 681.054688 L 748.566406 681.054688 C 754.945312 681.054688 760.136719 686.246094 760.136719 692.625 L 760.136719 714.503906 C 760.136719 720.882812 754.945312 726.074219 748.566406 726.074219 Z M 748.566406 726.074219 " fill-opacity="1" fill-rule="nonzero"/></g><g clip-path="url(#7298d35fe0)"><path fill="#1b1b1b" d="M 698.019531 776.933594 L 676.140625 776.933594 C 669.761719 776.933594 664.570312 771.742188 664.570312 765.363281 L 664.570312 743.484375 C 664.570312 737.105469 669.761719 731.914062 676.140625 731.914062 L 698.019531 731.914062 C 704.398438 731.914062 709.589844 737.105469 709.589844 743.484375 L 709.589844 765.363281 C 709.589844 771.742188 704.398438 776.933594 698.019531 776.933594 Z M 698.019531 776.933594 " fill-opacity="1" fill-rule="nonzero"/></g><g clip-path="url(#c0a8a2a502)"><path fill="#1b1b1b" d="M 748.566406 776.933594 L 726.6875 776.933594 C 720.308594 776.933594 715.121094 771.742188 715.121094 765.363281 L 715.121094 743.484375 C 715.121094 737.105469 720.308594 731.914062 726.6875 731.914062 L 748.566406 731.914062 C 754.945312 731.914062 760.136719 737.105469 760.136719 743.484375 L 760.136719 765.363281 C 760.136719 771.742188 754.945312 776.933594 748.566406 776.933594 Z M 748.566406 776.933594 " fill-opacity="1" fill-rule="nonzero"/></g><path fill="#545454" d="M 693.988281 701.277344 L 689.460938 701.230469 L 689.507812 696.703125 C 689.523438 695.402344 688.476562 694.335938 687.175781 694.320312 C 685.871094 694.308594 684.804688 695.351562 684.792969 696.65625 L 684.746094 701.183594 L 680.21875 701.136719 C 680.207031 701.136719 680.195312 701.136719 680.1875 701.136719 C 678.898438 701.140625 677.851562 702.179688 677.835938 703.46875 C 677.824219 704.773438 678.867188 705.839844 680.171875 705.851562 L 684.695312 705.898438 L 684.648438 710.425781 C 684.636719 711.726562 685.683594 712.792969 686.984375 712.808594 C 686.996094 712.808594 687.007812 712.808594 687.019531 712.808594 C 688.304688 712.800781 689.355469 711.765625 689.367188 710.472656 L 689.414062 705.949219 L 693.9375 705.992188 C 693.949219 705.992188 693.960938 705.992188 693.972656 705.992188 C 695.261719 705.988281 696.308594 704.949219 696.320312 703.660156 C 696.335938 702.355469 695.289062 701.289062 693.988281 701.277344 Z M 693.988281 701.277344 " fill-opacity="1" fill-rule="nonzero"/><path fill="#545454" d="M 690.414062 754.429688 L 693.621094 751.234375 C 694.542969 750.316406 694.546875 748.824219 693.628906 747.902344 C 692.707031 746.976562 691.214844 746.976562 690.292969 747.894531 L 687.085938 751.089844 L 683.890625 747.882812 C 683.882812 747.875 683.875 747.867188 683.867188 747.859375 C 682.945312 746.960938 681.46875 746.964844 680.554688 747.878906 C 679.632812 748.796875 679.628906 750.289062 680.550781 751.214844 L 683.746094 754.417969 L 680.539062 757.613281 C 679.617188 758.53125 679.613281 760.027344 680.53125 760.949219 C 680.539062 760.957031 680.546875 760.964844 680.554688 760.972656 C 681.476562 761.871094 682.953125 761.867188 683.867188 760.953125 L 687.074219 757.761719 L 690.269531 760.964844 C 690.277344 760.972656 690.285156 760.980469 690.292969 760.988281 C 691.214844 761.890625 692.6875 761.882812 693.605469 760.972656 C 694.527344 760.050781 694.527344 758.558594 693.609375 757.636719 Z M 690.414062 754.429688 " fill-opacity="1" fill-rule="nonzero"/><path fill="#545454" d="M 743.851562 705.910156 C 743.839844 705.910156 743.828125 705.910156 743.816406 705.910156 L 730.050781 705.886719 C 728.746094 705.886719 727.691406 704.828125 727.695312 703.527344 C 727.695312 702.234375 728.738281 701.1875 730.023438 701.171875 C 730.035156 701.171875 730.046875 701.171875 730.058594 701.171875 L 743.828125 701.195312 C 745.128906 701.195312 746.183594 702.253906 746.179688 703.558594 C 746.179688 704.847656 745.136719 705.894531 743.851562 705.910156 Z M 743.851562 705.910156 " fill-opacity="1" fill-rule="nonzero"/><path fill="#545454" d="M 743.871094 756.484375 C 743.859375 756.484375 743.851562 756.484375 743.839844 756.484375 L 731.414062 756.445312 C 730.238281 756.441406 729.285156 755.378906 729.285156 754.078125 C 729.285156 752.785156 730.222656 751.742188 731.382812 751.726562 C 731.394531 751.726562 731.40625 751.726562 731.414062 751.726562 L 743.84375 751.765625 C 745.019531 751.769531 745.972656 752.828125 745.972656 754.132812 C 745.972656 755.421875 745.03125 756.46875 743.871094 756.484375 Z M 743.871094 756.484375 " fill-opacity="1" fill-rule="nonzero"/><path fill="#545454" d="M 740.867188 746.882812 C 740.867188 747.3125 740.785156 747.726562 740.621094 748.121094 C 740.457031 748.519531 740.222656 748.867188 739.917969 749.171875 C 739.613281 749.476562 739.265625 749.710938 738.867188 749.875 C 738.46875 750.039062 738.058594 750.121094 737.628906 750.121094 C 737.199219 750.121094 736.785156 750.039062 736.390625 749.875 C 735.992188 749.710938 735.640625 749.476562 735.339844 749.171875 C 735.035156 748.867188 734.800781 748.519531 734.636719 748.121094 C 734.472656 747.726562 734.390625 747.3125 734.390625 746.882812 C 734.390625 746.453125 734.472656 746.039062 734.636719 745.644531 C 734.800781 745.246094 735.035156 744.898438 735.339844 744.59375 C 735.640625 744.289062 735.992188 744.054688 736.390625 743.890625 C 736.785156 743.726562 737.199219 743.644531 737.628906 743.644531 C 738.058594 743.644531 738.46875 743.726562 738.867188 743.890625 C 739.265625 744.054688 739.613281 744.289062 739.917969 744.59375 C 740.222656 744.898438 740.457031 745.246094 740.621094 745.644531 C 740.785156 746.039062 740.867188 746.453125 740.867188 746.882812 Z M 740.867188 746.882812 " fill-opacity="1" fill-rule="nonzero"/><path fill="#545454" d="M 740.867188 761.964844 C 740.867188 762.394531 740.785156 762.808594 740.621094 763.207031 C 740.457031 763.601562 740.222656 763.953125 739.917969 764.257812 C 739.613281 764.558594 739.265625 764.792969 738.867188 764.957031 C 738.46875 765.121094 738.058594 765.203125 737.628906 765.203125 C 737.199219 765.203125 736.785156 765.121094 736.390625 764.957031 C 735.992188 764.792969 735.640625 764.558594 735.339844 764.257812 C 735.035156 763.953125 734.800781 763.601562 734.636719 763.207031 C 734.472656 762.808594 734.390625 762.394531 734.390625 761.964844 C 734.390625 761.539062 734.472656 761.125 734.636719 760.726562 C 734.800781 760.332031 735.035156 759.980469 735.339844 759.675781 C 735.640625 759.375 735.992188 759.140625 736.390625 758.976562 C 736.785156 758.8125 737.199219 758.730469 737.628906 758.730469 C 738.058594 758.730469 738.46875 758.8125 738.867188 758.976562 C 739.265625 759.140625 739.613281 759.375 739.917969 759.675781 C 740.222656 759.980469 740.457031 760.332031 740.621094 760.726562 C 740.785156 761.125 740.867188 761.539062 740.867188 761.964844 Z M 740.867188 761.964844 " fill-opacity="1" fill-rule="nonzero"/><g clip-path="url(#e8949306bb)"><path fill="#1b1b1b" d="M 227.609375 558.058594 L 205.730469 558.058594 C 199.351562 558.058594 194.160156 552.867188 194.160156 546.488281 L 194.160156 524.609375 C 194.160156 518.230469 199.351562 513.039062 205.730469 513.039062 L 227.609375 513.039062 C 233.988281 513.039062 239.179688 518.230469 239.179688 524.609375 L 239.179688 546.488281 C 239.179688 552.867188 233.988281 558.058594 227.609375 558.058594 Z M 227.609375 558.058594 " fill-opacity="1" fill-rule="nonzero"/></g><g clip-path="url(#0127e82522)"><path fill="#1b1b1b" d="M 278.15625 558.058594 L 256.277344 558.058594 C 249.898438 558.058594 244.710938 552.867188 244.710938 546.488281 L 244.710938 524.609375 C 244.710938 518.230469 249.898438 513.039062 256.277344 513.039062 L 278.15625 513.039062 C 284.535156 513.039062 289.726562 518.230469 289.726562 524.609375 L 289.726562 546.488281 C 289.726562 552.867188 284.535156 558.058594 278.15625 558.058594 Z M 278.15625 558.058594 " fill-opacity="1" fill-rule="nonzero"/></g><g clip-path="url(#f52a619bc6)"><path fill="#1b1b1b" d="M 227.609375 608.917969 L 205.730469 608.917969 C 199.351562 608.917969 194.160156 603.730469 194.160156 597.347656 L 194.160156 575.46875 C 194.160156 569.089844 199.351562 563.902344 205.730469 563.902344 L 227.609375 563.902344 C 233.988281 563.902344 239.179688 569.089844 239.179688 575.46875 L 239.179688 597.347656 C 239.179688 603.730469 233.988281 608.917969 227.609375 608.917969 Z M 227.609375 608.917969 " fill-opacity="1" fill-rule="nonzero"/></g><g clip-path="url(#8202030f23)"><path fill="#1b1b1b" d="M 278.15625 608.917969 L 256.277344 608.917969 C 249.898438 608.917969 244.710938 603.730469 244.710938 597.347656 L 244.710938 575.46875 C 244.710938 569.089844 249.898438 563.902344 256.277344 563.902344 L 278.15625 563.902344 C 284.535156 563.902344 289.726562 569.089844 289.726562 575.46875 L 289.726562 597.347656 C 289.726562 603.730469 284.535156 608.917969 278.15625 608.917969 Z M 278.15625 608.917969 " fill-opacity="1" fill-rule="nonzero"/></g><path fill="#545454" d="M 223.578125 533.261719 L 219.050781 533.214844 L 219.097656 528.691406 C 219.113281 527.386719 218.066406 526.320312 216.765625 526.308594 C 215.460938 526.292969 214.394531 527.339844 214.382812 528.640625 L 214.335938 533.167969 L 209.808594 533.121094 C 209.796875 533.121094 209.789062 533.121094 209.777344 533.121094 C 208.488281 533.125 207.441406 534.164062 207.425781 535.457031 C 207.414062 536.757812 208.457031 537.824219 209.761719 537.839844 L 214.285156 537.882812 L 214.242188 542.410156 C 214.226562 543.714844 215.273438 544.78125 216.574219 544.792969 C 216.585938 544.792969 216.597656 544.792969 216.609375 544.792969 C 217.894531 544.789062 218.945312 543.75 218.957031 542.457031 L 219.003906 537.933594 L 223.53125 537.980469 C 223.539062 537.980469 223.550781 537.980469 223.5625 537.980469 C 224.851562 537.972656 225.898438 536.9375 225.914062 535.644531 C 225.925781 534.34375 224.878906 533.277344 223.578125 533.261719 Z M 223.578125 533.261719 " fill-opacity="1" fill-rule="nonzero"/><path fill="#545454" d="M 220.003906 586.417969 L 223.210938 583.222656 C 224.132812 582.300781 224.136719 580.808594 223.21875 579.886719 C 222.296875 578.964844 220.804688 578.960938 219.882812 579.878906 L 216.675781 583.074219 L 213.480469 579.867188 C 213.472656 579.859375 213.464844 579.851562 213.457031 579.84375 C 212.535156 578.945312 211.0625 578.953125 210.144531 579.863281 C 209.222656 580.78125 209.222656 582.277344 210.140625 583.199219 L 213.335938 586.40625 L 210.128906 589.597656 C 209.207031 590.519531 209.203125 592.011719 210.121094 592.933594 C 210.128906 592.941406 210.136719 592.949219 210.144531 592.957031 C 211.066406 593.859375 212.542969 593.851562 213.457031 592.941406 L 216.664062 589.746094 L 219.859375 592.953125 C 219.867188 592.960938 219.875 592.96875 219.882812 592.976562 C 220.804688 593.875 222.28125 593.867188 223.195312 592.957031 C 224.117188 592.039062 224.121094 590.542969 223.199219 589.621094 Z M 220.003906 586.417969 " fill-opacity="1" fill-rule="nonzero"/><path fill="#545454" d="M 273.441406 537.898438 C 273.429688 537.898438 273.417969 537.898438 273.40625 537.898438 L 259.640625 537.875 C 258.335938 537.871094 257.28125 536.8125 257.285156 535.511719 C 257.289062 534.21875 258.328125 533.171875 259.613281 533.15625 C 259.625 533.15625 259.636719 533.15625 259.648438 533.15625 L 273.417969 533.179688 C 274.71875 533.183594 275.773438 534.238281 275.769531 535.542969 C 275.769531 536.835938 274.726562 537.882812 273.441406 537.898438 Z M 273.441406 537.898438 " fill-opacity="1" fill-rule="nonzero"/><path fill="#545454" d="M 273.460938 588.46875 C 273.453125 588.46875 273.441406 588.46875 273.429688 588.46875 L 261.003906 588.429688 C 259.828125 588.425781 258.875 587.367188 258.875 586.0625 C 258.875 584.773438 259.8125 583.726562 260.976562 583.710938 C 260.984375 583.710938 260.996094 583.710938 261.003906 583.710938 L 273.433594 583.753906 C 274.609375 583.757812 275.5625 584.816406 275.5625 586.117188 C 275.5625 587.410156 274.625 588.453125 273.460938 588.46875 Z M 273.460938 588.46875 " fill-opacity="1" fill-rule="nonzero"/><path fill="#545454" d="M 270.457031 578.867188 C 270.457031 579.296875 270.375 579.710938 270.210938 580.109375 C 270.046875 580.503906 269.8125 580.855469 269.507812 581.160156 C 269.203125 581.460938 268.855469 581.695312 268.457031 581.859375 C 268.058594 582.023438 267.648438 582.105469 267.21875 582.105469 C 266.789062 582.105469 266.375 582.023438 265.980469 581.859375 C 265.582031 581.695312 265.230469 581.460938 264.929688 581.160156 C 264.625 580.855469 264.390625 580.503906 264.226562 580.109375 C 264.0625 579.710938 263.980469 579.296875 263.980469 578.867188 C 263.980469 578.4375 264.0625 578.027344 264.226562 577.628906 C 264.390625 577.234375 264.625 576.882812 264.929688 576.578125 C 265.230469 576.277344 265.582031 576.042969 265.980469 575.878906 C 266.375 575.714844 266.789062 575.628906 267.21875 575.628906 C 267.648438 575.628906 268.058594 575.714844 268.457031 575.878906 C 268.855469 576.042969 269.203125 576.277344 269.507812 576.578125 C 269.8125 576.882812 270.046875 577.234375 270.210938 577.628906 C 270.375 578.027344 270.457031 578.4375 270.457031 578.867188 Z M 270.457031 578.867188 " fill-opacity="1" fill-rule="nonzero"/><path fill="#545454" d="M 270.457031 593.953125 C 270.457031 594.382812 270.375 594.792969 270.210938 595.191406 C 270.046875 595.589844 269.8125 595.9375 269.507812 596.242188 C 269.203125 596.546875 268.855469 596.78125 268.457031 596.945312 C 268.058594 597.109375 267.648438 597.191406 267.21875 597.191406 C 266.789062 597.191406 266.375 597.109375 265.980469 596.945312 C 265.582031 596.78125 265.230469 596.546875 264.929688 596.242188 C 264.625 595.9375 264.390625 595.589844 264.226562 595.191406 C 264.0625 594.792969 263.980469 594.382812 263.980469 593.953125 C 263.980469 593.523438 264.0625 593.109375 264.226562 592.714844 C 264.390625 592.316406 264.625 591.964844 264.929688 591.664062 C 265.230469 591.359375 265.582031 591.125 265.980469 590.960938 C 266.375 590.796875 266.789062 590.714844 267.21875 590.714844 C 267.648438 590.714844 268.058594 590.796875 268.457031 590.960938 C 268.855469 591.125 269.203125 591.359375 269.507812 591.664062 C 269.8125 591.964844 270.046875 592.316406 270.210938 592.714844 C 270.375 593.109375 270.457031 593.523438 270.457031 593.953125 Z M 270.457031 593.953125 " fill-opacity="1" fill-rule="nonzero"/><g clip-path="url(#aa8af49e6c)"><path fill="#1b1b1b" d="M 80.300781 78.074219 L 58.421875 78.074219 C 52.042969 78.074219 46.851562 72.882812 46.851562 66.503906 L 46.851562 44.625 C 46.851562 38.246094 52.042969 33.054688 58.421875 33.054688 L 80.300781 33.054688 C 86.679688 33.054688 91.871094 38.246094 91.871094 44.625 L 91.871094 66.503906 C 91.871094 72.882812 86.679688 78.074219 80.300781 78.074219 Z M 80.300781 78.074219 " fill-opacity="1" fill-rule="nonzero"/></g><g clip-path="url(#e93407a451)"><path fill="#1b1b1b" d="M 130.851562 78.074219 L 108.972656 78.074219 C 102.59375 78.074219 97.402344 72.882812 97.402344 66.503906 L 97.402344 44.625 C 97.402344 38.246094 102.59375 33.054688 108.972656 33.054688 L 130.851562 33.054688 C 137.230469 33.054688 142.417969 38.246094 142.417969 44.625 L 142.417969 66.503906 C 142.417969 72.882812 137.230469 78.074219 130.851562 78.074219 Z M 130.851562 78.074219 " fill-opacity="1" fill-rule="nonzero"/></g><g clip-path="url(#f5e5aaec49)"><path fill="#1b1b1b" d="M 80.300781 128.933594 L 58.421875 128.933594 C 52.042969 128.933594 46.851562 123.742188 46.851562 117.363281 L 46.851562 95.484375 C 46.851562 89.105469 52.042969 83.914062 58.421875 83.914062 L 80.300781 83.914062 C 86.679688 83.914062 91.871094 89.105469 91.871094 95.484375 L 91.871094 117.363281 C 91.871094 123.742188 86.679688 128.933594 80.300781 128.933594 Z M 80.300781 128.933594 " fill-opacity="1" fill-rule="nonzero"/></g><g clip-path="url(#73a578f471)"><path fill="#1b1b1b" d="M 130.851562 128.933594 L 108.972656 128.933594 C 102.59375 128.933594 97.402344 123.742188 97.402344 117.363281 L 97.402344 95.484375 C 97.402344 89.105469 102.59375 83.914062 108.972656 83.914062 L 130.851562 83.914062 C 137.230469 83.914062 142.417969 89.105469 142.417969 95.484375 L 142.417969 117.363281 C 142.417969 123.742188 137.230469 128.933594 130.851562 128.933594 Z M 130.851562 128.933594 " fill-opacity="1" fill-rule="nonzero"/></g><path fill="#545454" d="M 76.269531 53.277344 L 71.746094 53.230469 L 71.789062 48.703125 C 71.804688 47.402344 70.757812 46.335938 69.457031 46.320312 C 68.152344 46.308594 67.085938 47.351562 67.074219 48.65625 L 67.027344 53.183594 L 62.5 53.136719 C 62.492188 53.136719 62.480469 53.136719 62.46875 53.136719 C 61.179688 53.140625 60.132812 54.179688 60.117188 55.46875 C 60.105469 56.773438 61.152344 57.839844 62.453125 57.851562 L 66.980469 57.898438 L 66.933594 62.425781 C 66.917969 63.726562 67.964844 64.792969 69.265625 64.808594 C 69.277344 64.808594 69.289062 64.808594 69.300781 64.808594 C 70.585938 64.800781 71.636719 63.765625 71.648438 62.472656 L 71.695312 57.949219 L 76.222656 57.992188 C 76.234375 57.992188 76.242188 57.992188 76.253906 57.992188 C 77.542969 57.988281 78.589844 56.949219 78.605469 55.660156 C 78.617188 54.355469 77.574219 53.289062 76.269531 53.277344 Z M 76.269531 53.277344 " fill-opacity="1" fill-rule="nonzero"/><path fill="#545454" d="M 72.699219 106.429688 L 75.902344 103.234375 C 76.828125 102.316406 76.828125 100.824219 75.910156 99.902344 C 74.988281 98.976562 73.496094 98.976562 72.574219 99.894531 L 69.367188 103.089844 L 66.171875 99.882812 C 66.164062 99.875 66.15625 99.867188 66.148438 99.859375 C 65.230469 98.960938 63.753906 98.964844 62.839844 99.878906 C 61.914062 100.796875 61.914062 102.289062 62.832031 103.214844 L 66.027344 106.417969 L 62.820312 109.613281 C 61.898438 110.53125 61.894531 112.027344 62.816406 112.949219 C 62.824219 112.957031 62.832031 112.964844 62.839844 112.972656 C 63.761719 113.871094 65.234375 113.867188 66.152344 112.953125 L 69.355469 109.761719 L 72.550781 112.964844 C 72.558594 112.972656 72.566406 112.980469 72.574219 112.988281 C 73.496094 113.890625 74.972656 113.882812 75.886719 112.972656 C 76.808594 112.054688 76.8125 110.558594 75.894531 109.636719 Z M 72.699219 106.429688 " fill-opacity="1" fill-rule="nonzero"/><path fill="#545454" d="M 126.132812 57.910156 C 126.121094 57.910156 126.113281 57.910156 126.101562 57.910156 L 112.332031 57.886719 C 111.027344 57.886719 109.976562 56.828125 109.976562 55.527344 C 109.980469 54.234375 111.019531 53.1875 112.308594 53.171875 C 112.320312 53.171875 112.328125 53.171875 112.339844 53.171875 L 126.109375 53.195312 C 127.410156 53.195312 128.464844 54.253906 128.464844 55.558594 C 128.460938 56.847656 127.421875 57.894531 126.132812 57.910156 Z M 126.132812 57.910156 " fill-opacity="1" fill-rule="nonzero"/><path fill="#545454" d="M 126.152344 108.484375 C 126.144531 108.484375 126.132812 108.484375 126.125 108.484375 L 113.695312 108.445312 C 112.519531 108.441406 111.566406 107.378906 111.566406 106.078125 C 111.566406 104.785156 112.503906 103.742188 113.667969 103.726562 C 113.675781 103.726562 113.6875 103.726562 113.695312 103.726562 L 126.125 103.765625 C 127.300781 103.769531 128.253906 104.828125 128.253906 106.132812 C 128.253906 107.421875 127.316406 108.46875 126.152344 108.484375 Z M 126.152344 108.484375 " fill-opacity="1" fill-rule="nonzero"/><path fill="#545454" d="M 123.148438 98.882812 C 123.148438 99.3125 123.066406 99.726562 122.902344 100.121094 C 122.738281 100.519531 122.503906 100.871094 122.199219 101.171875 C 121.898438 101.476562 121.546875 101.710938 121.148438 101.875 C 120.753906 102.039062 120.339844 102.121094 119.910156 102.121094 C 119.480469 102.121094 119.066406 102.039062 118.671875 101.875 C 118.273438 101.710938 117.925781 101.476562 117.621094 101.171875 C 117.316406 100.871094 117.082031 100.519531 116.917969 100.121094 C 116.753906 99.726562 116.671875 99.3125 116.671875 98.882812 C 116.671875 98.453125 116.753906 98.039062 116.917969 97.644531 C 117.082031 97.246094 117.316406 96.898438 117.621094 96.59375 C 117.925781 96.289062 118.273438 96.054688 118.671875 95.890625 C 119.066406 95.726562 119.480469 95.644531 119.910156 95.644531 C 120.339844 95.644531 120.753906 95.726562 121.148438 95.890625 C 121.546875 96.054688 121.898438 96.289062 122.199219 96.59375 C 122.503906 96.898438 122.738281 97.246094 122.902344 97.644531 C 123.066406 98.039062 123.148438 98.453125 123.148438 98.882812 Z M 123.148438 98.882812 " fill-opacity="1" fill-rule="nonzero"/><path fill="#545454" d="M 123.148438 113.964844 C 123.148438 114.394531 123.066406 114.808594 122.902344 115.207031 C 122.738281 115.601562 122.503906 115.953125 122.199219 116.257812 C 121.898438 116.558594 121.546875 116.792969 121.148438 116.957031 C 120.753906 117.121094 120.339844 117.203125 119.910156 117.203125 C 119.480469 117.203125 119.066406 117.121094 118.671875 116.957031 C 118.273438 116.792969 117.925781 116.558594 117.621094 116.257812 C 117.316406 115.953125 117.082031 115.601562 116.917969 115.207031 C 116.753906 114.808594 116.671875 114.394531 116.671875 113.964844 C 116.671875 113.539062 116.753906 113.125 116.917969 112.726562 C 117.082031 112.332031 117.316406 111.980469 117.621094 111.675781 C 117.925781 111.375 118.273438 111.140625 118.671875 110.976562 C 119.066406 110.8125 119.480469 110.730469 119.910156 110.730469 C 120.339844 110.730469 120.753906 110.8125 121.148438 110.976562 C 121.546875 111.140625 121.898438 111.375 122.199219 111.675781 C 122.503906 111.980469 122.738281 112.332031 122.902344 112.726562 C 123.066406 113.125 123.148438 113.539062 123.148438 113.964844 Z M 123.148438 113.964844 " fill-opacity="1" fill-rule="nonzero"/><path fill="#1b1b1b" d="M 174.890625 341.027344 C 173.253906 341.027344 171.699219 341.519531 170.375 342.425781 C 169.003906 341.410156 167.367188 340.839844 165.632812 340.839844 C 163.484375 340.839844 161.464844 341.675781 159.949219 343.195312 C 159.242188 343.902344 159.242188 345.046875 159.949219 345.75 C 160.652344 346.457031 161.796875 346.457031 162.5 345.75 C 164.175781 344.078125 167.085938 344.078125 168.761719 345.75 C 169.597656 346.585938 170.058594 347.699219 170.058594 348.878906 C 170.058594 350.0625 169.597656 351.171875 168.761719 352.007812 C 168.054688 352.714844 168.054688 353.859375 168.761719 354.5625 C 169.113281 354.917969 169.574219 355.09375 170.039062 355.09375 C 170.5 355.09375 170.960938 354.917969 171.316406 354.5625 C 172.832031 353.042969 173.667969 351.027344 173.667969 348.878906 C 173.667969 347.582031 173.332031 346.351562 172.753906 345.230469 C 174.429688 344.335938 176.644531 344.558594 178.023438 345.9375 C 178.375 346.289062 178.835938 346.464844 179.296875 346.464844 C 179.761719 346.464844 180.222656 346.289062 180.574219 345.9375 C 181.28125 345.234375 181.28125 344.089844 180.574219 343.382812 C 179.058594 341.863281 177.039062 341.027344 174.890625 341.027344 Z M 174.890625 341.027344 " fill-opacity="1" fill-rule="nonzero"/><path fill="#1b1b1b" d="M 189.320312 335.824219 C 188.878906 335.363281 188.398438 334.933594 187.894531 334.539062 C 190.132812 332.933594 191.582031 330.3125 191.582031 327.429688 C 191.582031 323.480469 188.945312 320.125 185.34375 319.035156 C 186.175781 316.195312 186.03125 313.136719 184.894531 310.214844 C 183.570312 306.804688 180.726562 304.050781 177.289062 302.84375 C 174.472656 301.855469 171.59375 301.761719 168.941406 302.519531 C 169.058594 301.109375 168.835938 299.648438 168.253906 298.234375 C 167.355469 296.054688 165.566406 294.351562 163.347656 293.5625 C 160.511719 292.554688 157.527344 292.941406 155.15625 294.613281 C 154.414062 295.136719 153.78125 295.773438 153.246094 296.476562 C 152.710938 295.773438 152.078125 295.136719 151.335938 294.613281 C 148.96875 292.941406 145.980469 292.554688 143.144531 293.5625 C 140.925781 294.351562 139.136719 296.054688 138.238281 298.234375 C 137.65625 299.648438 137.433594 301.109375 137.550781 302.519531 C 134.898438 301.761719 132.019531 301.855469 129.203125 302.84375 C 125.765625 304.050781 122.921875 306.804688 121.597656 310.214844 C 120.460938 313.136719 120.316406 316.195312 121.148438 319.035156 C 117.546875 320.125 114.910156 323.480469 114.910156 327.429688 C 114.910156 330.3125 116.359375 332.933594 118.597656 334.539062 C 118.09375 334.933594 117.613281 335.363281 117.171875 335.824219 C 114.792969 338.308594 113.484375 341.570312 113.484375 345.007812 C 113.484375 350.777344 117.160156 355.777344 122.472656 357.582031 C 121.972656 359.796875 122.214844 362.089844 123.199219 364.320312 C 124.222656 366.652344 126.179688 368.550781 128.5625 369.53125 C 131.378906 370.695312 134.300781 370.675781 136.941406 369.511719 C 138.960938 371.449219 141.570312 372.476562 144.308594 372.476562 C 145.691406 372.476562 147.109375 372.214844 148.496094 371.671875 C 150.457031 370.910156 152.097656 369.527344 153.246094 367.785156 C 154.394531 369.527344 156.035156 370.910156 157.996094 371.671875 C 159.382812 372.214844 160.800781 372.476562 162.183594 372.476562 C 164.921875 372.476562 167.53125 371.449219 169.550781 369.511719 C 172.191406 370.675781 175.117188 370.695312 177.925781 369.535156 C 180.3125 368.550781 182.269531 366.652344 183.292969 364.320312 C 184.277344 362.089844 184.519531 359.796875 184.019531 357.582031 C 189.332031 355.777344 193.007812 350.777344 193.007812 345.007812 C 193.007812 341.570312 191.699219 338.308594 189.320312 335.824219 Z M 147.183594 368.308594 C 143.402344 369.78125 140.347656 368.15625 138.75 366.144531 C 138.394531 365.699219 137.871094 365.460938 137.335938 365.460938 C 137.011719 365.460938 136.683594 365.546875 136.386719 365.730469 C 135.003906 366.582031 132.765625 367.359375 129.941406 366.191406 C 128.410156 365.5625 127.15625 364.347656 126.503906 362.863281 C 125.414062 360.394531 125.867188 358.339844 126.441406 357.046875 C 126.667969 356.539062 126.644531 355.957031 126.382812 355.464844 C 126.121094 354.976562 125.648438 354.632812 125.101562 354.539062 C 120.460938 353.726562 117.09375 349.71875 117.09375 345.007812 C 117.09375 342.503906 118.046875 340.132812 119.78125 338.324219 C 120.765625 337.296875 121.988281 336.484375 123.308594 335.972656 C 124.074219 335.679688 124.546875 334.90625 124.457031 334.089844 C 124.367188 333.273438 123.738281 332.621094 122.925781 332.5 C 120.375 332.125 118.523438 329.992188 118.523438 327.429688 C 118.523438 324.597656 120.824219 322.289062 123.65625 322.277344 C 124.28125 322.273438 124.859375 321.945312 125.1875 321.414062 C 125.515625 320.882812 125.542969 320.21875 125.261719 319.65625 C 124.371094 317.886719 123.597656 315.039062 124.964844 311.523438 C 125.910156 309.085938 127.941406 307.113281 130.398438 306.25 C 133.769531 305.066406 137.238281 305.609375 139.917969 307.730469 C 140.648438 308.308594 141.699219 308.238281 142.34375 307.5625 C 142.988281 306.890625 143.015625 305.835938 142.40625 305.132812 C 141.070312 303.589844 140.769531 301.578125 141.578125 299.609375 C 142.078125 298.394531 143.117188 297.40625 144.355469 296.96875 C 146.070312 296.355469 147.851562 296.574219 149.253906 297.566406 C 150.621094 298.53125 151.441406 300.105469 151.441406 301.78125 L 151.441406 350.527344 C 149.847656 349.277344 147.867188 348.5 145.691406 348.5 C 140.527344 348.5 136.328125 352.699219 136.328125 357.859375 C 136.328125 358.855469 137.136719 359.664062 138.132812 359.664062 C 139.132812 359.664062 139.941406 358.855469 139.941406 357.859375 C 139.941406 354.6875 142.519531 352.109375 145.691406 352.109375 C 148.859375 352.109375 151.441406 354.6875 151.441406 357.859375 L 151.441406 361.730469 C 151.441406 364.671875 149.730469 367.316406 147.183594 368.308594 Z M 181.390625 354.539062 C 180.84375 354.632812 180.371094 354.976562 180.109375 355.464844 C 179.847656 355.957031 179.824219 356.539062 180.050781 357.046875 C 180.625 358.339844 181.078125 360.394531 179.988281 362.863281 C 179.335938 364.347656 178.082031 365.5625 176.550781 366.195312 C 173.730469 367.359375 171.488281 366.582031 170.105469 365.730469 C 169.324219 365.25 168.308594 365.425781 167.742188 366.144531 C 166.144531 368.15625 163.09375 369.78125 159.308594 368.308594 C 156.761719 367.316406 155.050781 364.671875 155.050781 361.730469 L 155.050781 325.632812 C 156.644531 326.886719 158.625 327.664062 160.800781 327.664062 C 165.964844 327.664062 170.164062 323.464844 170.164062 318.300781 C 170.164062 317.304688 169.355469 316.496094 168.359375 316.496094 C 167.359375 316.496094 166.550781 317.304688 166.550781 318.300781 C 166.550781 321.472656 163.972656 324.050781 160.800781 324.050781 C 157.632812 324.050781 155.050781 321.472656 155.050781 318.300781 L 155.050781 301.78125 C 155.050781 300.105469 155.871094 298.53125 157.238281 297.566406 C 158.117188 296.945312 159.144531 296.628906 160.210938 296.628906 C 160.847656 296.628906 161.5 296.742188 162.136719 296.96875 C 163.375 297.40625 164.414062 298.394531 164.914062 299.609375 C 165.722656 301.578125 165.421875 303.589844 164.085938 305.132812 C 163.476562 305.835938 163.503906 306.890625 164.148438 307.5625 C 164.792969 308.238281 165.84375 308.308594 166.574219 307.730469 C 169.253906 305.609375 172.722656 305.070312 176.09375 306.25 C 178.550781 307.113281 180.582031 309.085938 181.527344 311.523438 C 182.894531 315.039062 182.121094 317.886719 181.230469 319.65625 C 180.949219 320.21875 180.976562 320.882812 181.304688 321.414062 C 181.632812 321.945312 182.210938 322.273438 182.835938 322.277344 C 185.667969 322.289062 187.96875 324.597656 187.96875 327.429688 C 187.96875 329.992188 186.117188 332.125 183.566406 332.5 C 182.753906 332.621094 182.125 333.273438 182.035156 334.089844 C 181.945312 334.90625 182.417969 335.679688 183.183594 335.972656 C 184.503906 336.484375 185.726562 337.296875 186.710938 338.324219 C 188.445312 340.132812 189.398438 342.503906 189.398438 345.007812 C 189.398438 349.71875 186.03125 353.726562 181.390625 354.539062 Z M 181.390625 354.539062 " fill-opacity="1" fill-rule="nonzero"/><path fill="#1b1b1b" d="M 139.800781 332.835938 C 139.800781 333.832031 140.609375 334.640625 141.609375 334.640625 C 142.605469 334.640625 143.414062 333.832031 143.414062 332.835938 C 143.414062 330.007812 141.9375 327.527344 139.722656 326.09375 C 139.730469 326.085938 139.742188 326.078125 139.75 326.070312 C 142.882812 322.933594 142.882812 317.835938 139.75 314.703125 C 139.042969 313.996094 137.902344 313.996094 137.195312 314.703125 C 136.492188 315.40625 136.492188 316.550781 137.195312 317.253906 C 138.921875 318.980469 138.921875 321.789062 137.195312 323.515625 C 135.472656 325.242188 132.660156 325.242188 130.9375 323.515625 C 130.230469 322.808594 129.085938 322.808594 128.382812 323.515625 C 127.675781 324.222656 127.675781 325.363281 128.382812 326.070312 C 129.949219 327.636719 132.007812 328.421875 134.066406 328.421875 C 134.375 328.421875 134.683594 328.367188 134.988281 328.332031 C 135.117188 328.359375 135.238281 328.410156 135.375 328.410156 C 137.816406 328.410156 139.800781 330.394531 139.800781 332.835938 Z M 139.800781 332.835938 " fill-opacity="1" fill-rule="nonzero"/><g clip-path="url(#25d84728bf)"><path fill="#1b1b1b" d="M 223.6875 334.554688 C 224.683594 334.554688 225.492188 333.746094 225.492188 332.746094 C 225.492188 331.75 224.683594 330.941406 223.6875 330.941406 L 207.429688 330.941406 L 207.429688 305.65625 L 216.84375 305.65625 C 217.539062 307.25 219.125 308.363281 220.976562 308.363281 C 223.46875 308.363281 225.492188 306.34375 225.492188 303.847656 C 225.492188 301.355469 223.46875 299.332031 220.976562 299.332031 C 219.125 299.332031 217.539062 300.449219 216.84375 302.042969 L 207.429688 302.042969 L 207.429688 287.59375 C 207.429688 282.613281 203.378906 278.5625 198.398438 278.5625 L 183.957031 278.5625 L 183.957031 262.308594 C 183.957031 261.308594 183.148438 260.5 182.152344 260.5 C 181.15625 260.5 180.347656 261.308594 180.347656 262.308594 L 180.347656 278.5625 L 155.058594 278.5625 L 155.058594 262.308594 C 155.058594 261.308594 154.25 260.5 153.253906 260.5 C 152.257812 260.5 151.449219 261.308594 151.449219 262.308594 L 151.449219 278.5625 L 126.160156 278.5625 L 126.160156 269.152344 C 127.753906 268.453125 128.871094 266.867188 128.871094 265.015625 C 128.871094 262.523438 126.847656 260.5 124.355469 260.5 C 121.863281 260.5 119.839844 262.523438 119.839844 265.015625 C 119.839844 266.867188 120.957031 268.453125 122.550781 269.152344 L 122.550781 278.5625 L 108.09375 278.5625 C 103.113281 278.5625 99.0625 282.613281 99.0625 287.59375 L 99.0625 302.042969 L 82.804688 302.042969 C 81.808594 302.042969 81 302.851562 81 303.847656 C 81 304.847656 81.808594 305.65625 82.804688 305.65625 L 99.0625 305.65625 L 99.0625 330.941406 L 82.804688 330.941406 C 81.808594 330.941406 81 331.75 81 332.746094 C 81 333.746094 81.808594 334.554688 82.804688 334.554688 L 99.0625 334.554688 L 99.0625 359.839844 L 89.648438 359.839844 C 88.953125 358.246094 87.367188 357.128906 85.515625 357.128906 C 83.023438 357.128906 81 359.152344 81 361.644531 C 81 364.140625 83.023438 366.160156 85.515625 366.160156 C 87.367188 366.160156 88.953125 365.046875 89.648438 363.453125 L 99.0625 363.453125 L 99.0625 377.902344 C 99.0625 382.878906 103.113281 386.933594 108.09375 386.933594 L 122.542969 386.933594 L 122.542969 396.363281 C 120.953125 397.0625 119.839844 398.644531 119.839844 400.492188 C 119.839844 402.988281 121.863281 405.007812 124.355469 405.007812 C 126.847656 405.007812 128.871094 402.988281 128.871094 400.492188 C 128.871094 398.640625 127.75 397.050781 126.152344 396.355469 L 126.152344 386.933594 L 151.441406 386.933594 L 151.441406 403.1875 C 151.441406 404.183594 152.25 404.992188 153.246094 404.992188 C 154.242188 404.992188 155.050781 404.183594 155.050781 403.1875 L 155.050781 386.933594 L 180.339844 386.933594 L 180.339844 403.1875 C 180.339844 404.183594 181.148438 404.992188 182.144531 404.992188 C 183.140625 404.992188 183.949219 404.183594 183.949219 403.1875 L 183.949219 386.933594 L 198.398438 386.933594 C 203.378906 386.933594 207.429688 382.878906 207.429688 377.902344 L 207.429688 363.453125 L 223.6875 363.453125 C 224.683594 363.453125 225.492188 362.644531 225.492188 361.644531 C 225.492188 360.648438 224.683594 359.839844 223.6875 359.839844 L 207.429688 359.839844 L 207.429688 334.554688 Z M 203.816406 377.902344 C 203.816406 380.890625 201.386719 383.320312 198.398438 383.320312 L 108.09375 383.320312 C 105.105469 383.320312 102.671875 380.890625 102.671875 377.902344 L 102.671875 287.59375 C 102.671875 284.605469 105.105469 282.175781 108.09375 282.175781 L 198.398438 282.175781 C 201.386719 282.175781 203.816406 284.605469 203.816406 287.59375 Z M 203.816406 377.902344 " fill-opacity="1" fill-rule="nonzero"/></g><path fill="#1b1b1b" d="M 518.175781 516 C 518.257812 516 539.597656 516 539.597656 516 C 544.808594 516 544.621094 507.96875 539.597656 507.96875 C 539.5 507.96875 518.175781 507.96875 518.175781 507.96875 C 512.863281 507.96875 513.160156 516 518.175781 516 Z M 518.175781 516 " fill-opacity="1" fill-rule="nonzero"/><path fill="#1b1b1b" d="M 518.175781 537.421875 C 518.375 537.421875 571.730469 537.421875 571.730469 537.421875 C 577.074219 537.421875 576.578125 529.390625 571.730469 529.390625 C 571.640625 529.390625 518.175781 529.390625 518.175781 529.390625 C 512.960938 529.390625 513.039062 537.421875 518.175781 537.421875 Z M 518.175781 537.421875 " fill-opacity="1" fill-rule="nonzero"/><path fill="#1b1b1b" d="M 518.175781 558.84375 C 518.40625 558.84375 571.730469 558.84375 571.730469 558.84375 C 576.941406 558.84375 576.863281 550.808594 571.726562 550.808594 C 571.445312 550.808594 518.175781 550.808594 518.175781 550.808594 C 512.945312 550.808594 513.019531 558.84375 518.175781 558.84375 Z M 518.175781 558.84375 " fill-opacity="1" fill-rule="nonzero"/><g clip-path="url(#962158c631)"><path fill="#1b1b1b" d="M 616.421875 591.96875 C 622.15625 584.390625 615.386719 574.007812 606.339844 574.90625 C 604.980469 575.070312 603.738281 574.367188 603.238281 573.25 C 601.984375 570.46875 599.722656 568.703125 597.167969 567.773438 C 597.167969 553.625 597.167969 495.917969 597.167969 495.917969 C 597.167969 487.796875 590.5625 481.191406 582.4375 481.191406 L 507.464844 481.191406 C 499.34375 481.191406 492.738281 487.796875 492.738281 495.917969 L 492.738281 581.601562 C 492.738281 582.667969 493.160156 583.691406 493.914062 584.441406 L 526.046875 616.574219 C 526.800781 617.328125 527.820312 617.75 528.886719 617.75 L 578.421875 617.75 C 578.421875 617.75 578.421875 635.105469 578.421875 635.15625 C 578.421875 638.101562 581.597656 640.050781 584.234375 638.75 L 593.148438 634.289062 C 593.148438 634.289062 602.042969 638.738281 602.066406 638.75 C 604.605469 640.019531 607.875 638.144531 607.875 635.15625 L 607.875 612.339844 C 616.167969 612.082031 621.765625 602.410156 616.421875 595.335938 C 615.648438 594.3125 615.648438 592.992188 616.421875 591.96875 Z M 507.464844 489.226562 L 582.4375 489.226562 C 586.132812 489.226562 589.132812 492.226562 589.132812 495.917969 L 589.132812 567.796875 C 586.597656 568.734375 584.351562 570.492188 583.097656 573.25 C 582.589844 574.367188 581.339844 575.0625 579.929688 574.898438 C 570.882812 573.84375 564.253906 584.484375 569.871094 591.917969 C 570.667969 592.972656 570.667969 594.332031 569.871094 595.386719 C 566.164062 600.300781 567.742188 606.300781 571.738281 609.71875 L 532.902344 609.71875 L 532.902344 581.601562 C 532.902344 579.386719 531.105469 577.585938 528.886719 577.585938 L 500.769531 577.585938 L 500.769531 495.917969 C 500.769531 492.226562 503.773438 489.226562 507.464844 489.226562 Z M 524.871094 604.039062 L 506.449219 585.621094 L 524.871094 585.621094 Z M 594.945312 626.207031 C 593.8125 625.644531 592.484375 625.644531 591.355469 626.207031 L 586.457031 628.65625 L 586.457031 618.042969 C 590.367188 620.945312 595.925781 620.96875 599.84375 618.09375 L 599.84375 628.65625 Z M 610.011719 600.179688 C 611.582031 602.257812 609.449219 604.632812 607.175781 604.40625 C 602.410156 603.917969 597.878906 606.449219 595.925781 610.722656 C 594.914062 612.949219 591.414062 612.929688 590.410156 610.71875 C 588.492188 606.492188 583.671875 603.945312 579.09375 604.414062 C 576.859375 604.6875 574.730469 602.28125 576.28125 600.230469 C 579.253906 596.296875 579.253906 591.007812 576.285156 587.078125 C 574.707031 584.992188 576.910156 582.671875 579.152344 582.898438 C 583.933594 583.394531 588.457031 580.867188 590.410156 576.582031 C 591.441406 574.3125 594.953125 574.441406 595.925781 576.582031 C 597.871094 580.863281 602.46875 583.40625 607.175781 582.898438 C 609.421875 582.65625 611.605469 585.027344 610.011719 587.125 C 607.0625 591.03125 607.0625 596.277344 610.011719 600.179688 Z M 610.011719 600.179688 " fill-opacity="1" fill-rule="nonzero"/></g></svg>