<svg xmlns="http://www.w3.org/2000/svg" xmlns:xlink="http://www.w3.org/1999/xlink" width="300" zoomAndPan="magnify" viewBox="0 0 224.87999 225" height="300" preserveAspectRatio="xMidYMid meet" version="1.0"><defs><g/><clipPath id="c362bf9a93"><path d="M 163.828125 84.667969 L 172.929688 84.667969 L 172.929688 93.769531 L 163.828125 93.769531 Z M 163.828125 84.667969 " clip-rule="nonzero"/></clipPath></defs><g clip-path="url(#c362bf9a93)"><path fill="#cb6ce6" d="M 168.355469 84.667969 C 170.851562 84.667969 172.878906 86.691406 172.878906 89.191406 C 172.878906 91.691406 170.851562 93.71875 168.355469 93.71875 C 165.855469 93.71875 163.828125 91.691406 163.828125 89.191406 C 163.828125 86.691406 165.855469 84.667969 168.355469 84.667969 Z M 168.355469 84.667969 " fill-opacity="1" fill-rule="evenodd"/></g><g fill="#cb6ce6" fill-opacity="1"><g transform="translate(9.592759, 122.016075)"><g><path d="M 22.921875 -35.5 L 22.921875 -27.28125 L 22.0625 -27.28125 C 20.914062 -27.28125 19.640625 -27.222656 18.234375 -27.109375 C 16.828125 -26.992188 15.582031 -26.644531 14.5 -26.0625 C 13.757812 -25.65625 13.132812 -25.082031 12.625 -24.34375 C 12.125 -23.601562 11.617188 -22.691406 11.109375 -21.609375 L 22.921875 -21.609375 L 22.921875 -13.890625 L 11.109375 -13.890625 C 11.578125 -12.773438 12.054688 -11.867188 12.546875 -11.171875 C 13.035156 -10.484375 13.59375 -9.925781 14.21875 -9.5 C 14.851562 -9.082031 15.59375 -8.78125 16.4375 -8.59375 C 17.28125 -8.40625 18.289062 -8.296875 19.46875 -8.265625 C 19.976562 -8.234375 20.507812 -8.21875 21.0625 -8.21875 C 21.625 -8.21875 22.242188 -8.21875 22.921875 -8.21875 L 22.921875 0 L 17.703125 0 C 15.429688 0 13.320312 -0.445312 11.375 -1.34375 C 9.4375 -2.238281 7.75 -3.476562 6.3125 -5.0625 C 4.875 -6.65625 3.738281 -8.535156 2.90625 -10.703125 C 2.082031 -12.867188 1.671875 -15.21875 1.671875 -17.75 C 1.671875 -20.25 2.078125 -22.582031 2.890625 -24.75 C 3.703125 -26.914062 4.828125 -28.789062 6.265625 -30.375 C 7.703125 -31.96875 9.390625 -33.21875 11.328125 -34.125 C 13.273438 -35.039062 15.398438 -35.5 17.703125 -35.5 Z M 22.921875 -35.5 "/></g></g></g><g fill="#000000" fill-opacity="1"><g transform="translate(34.96032, 122.016075)"><g><path d="M 28.90625 -35.5 L 28.90625 -11.15625 C 28.90625 -9.394531 28.550781 -7.796875 27.84375 -6.359375 C 27.132812 -4.921875 26.15625 -3.6875 24.90625 -2.65625 C 23.65625 -1.625 22.175781 -0.820312 20.46875 -0.25 C 18.757812 0.320312 16.90625 0.609375 14.90625 0.609375 C 12.976562 0.609375 11.1875 0.28125 9.53125 -0.375 C 7.875 -1.039062 6.4375 -1.957031 5.21875 -3.125 C 4 -4.289062 3.050781 -5.65625 2.375 -7.21875 C 1.707031 -8.789062 1.375 -10.507812 1.375 -12.375 C 1.375 -14.332031 1.71875 -16.101562 2.40625 -17.6875 C 3.101562 -19.28125 4.050781 -20.632812 5.25 -21.75 C 6.445312 -22.875 7.847656 -23.738281 9.453125 -24.34375 C 11.066406 -24.957031 12.769531 -25.265625 14.5625 -25.265625 C 15.46875 -25.265625 16.242188 -25.203125 16.890625 -25.078125 C 17.535156 -24.960938 18.0625 -24.820312 18.46875 -24.65625 L 18.46875 -17.140625 C 18.257812 -17.273438 17.875 -17.425781 17.3125 -17.59375 C 16.757812 -17.769531 16.023438 -17.859375 15.109375 -17.859375 C 14.296875 -17.859375 13.539062 -17.722656 12.84375 -17.453125 C 12.15625 -17.179688 11.566406 -16.800781 11.078125 -16.3125 C 10.585938 -15.820312 10.195312 -15.238281 9.90625 -14.5625 C 9.625 -13.882812 9.484375 -13.140625 9.484375 -12.328125 C 9.484375 -10.703125 10.003906 -9.375 11.046875 -8.34375 C 12.097656 -7.3125 13.4375 -6.796875 15.0625 -6.796875 C 16.039062 -6.796875 16.882812 -6.960938 17.59375 -7.296875 C 18.3125 -7.640625 18.90625 -8.097656 19.375 -8.671875 C 19.84375 -9.242188 20.195312 -9.921875 20.4375 -10.703125 C 20.675781 -11.484375 20.796875 -12.3125 20.796875 -13.1875 L 20.796875 -35.5 Z M 28.90625 -35.5 "/></g></g></g><g fill="#000000" fill-opacity="1"><g transform="translate(65.951607, 122.016075)"><g><path d="M 9.890625 -24.65625 L 9.890625 -10.390625 C 9.890625 -9.453125 10.125 -8.664062 10.59375 -8.03125 C 11.070312 -7.40625 11.769531 -7.09375 12.6875 -7.09375 C 13.59375 -7.09375 14.28125 -7.40625 14.75 -8.03125 C 15.226562 -8.664062 15.46875 -9.453125 15.46875 -10.390625 L 15.46875 -24.65625 L 23.28125 -24.65625 L 23.28125 -10.34375 C 23.28125 -8.757812 23.039062 -7.296875 22.5625 -5.953125 C 22.09375 -4.617188 21.410156 -3.46875 20.515625 -2.5 C 19.617188 -1.539062 18.507812 -0.78125 17.1875 -0.21875 C 15.875 0.332031 14.375 0.609375 12.6875 0.609375 C 10.988281 0.609375 9.476562 0.335938 8.15625 -0.203125 C 6.84375 -0.742188 5.738281 -1.503906 4.84375 -2.484375 C 3.945312 -3.460938 3.257812 -4.617188 2.78125 -5.953125 C 2.3125 -7.296875 2.078125 -8.757812 2.078125 -10.34375 L 2.078125 -24.65625 Z M 9.890625 -24.65625 "/></g></g></g><g fill="#000000" fill-opacity="1"><g transform="translate(91.312729, 122.016075)"><g><path d="M 17.75 -24.65625 L 17.75 -17.296875 L 14.15625 -17.296875 C 12.59375 -17.296875 11.375 -16.851562 10.5 -15.96875 C 9.625 -15.09375 9.1875 -13.878906 9.1875 -12.328125 C 9.1875 -10.765625 9.625 -9.535156 10.5 -8.640625 C 11.375 -7.742188 12.59375 -7.296875 14.15625 -7.296875 L 17.75 -7.296875 L 17.75 0 L 12.734375 0 C 11.210938 0 9.738281 -0.296875 8.3125 -0.890625 C 6.894531 -1.484375 5.65625 -2.316406 4.59375 -3.390625 C 3.53125 -4.472656 2.675781 -5.773438 2.03125 -7.296875 C 1.382812 -8.816406 1.0625 -10.492188 1.0625 -12.328125 C 1.0625 -14.179688 1.390625 -15.867188 2.046875 -17.390625 C 2.710938 -18.910156 3.585938 -20.203125 4.671875 -21.265625 C 5.753906 -22.335938 6.992188 -23.171875 8.390625 -23.765625 C 9.796875 -24.359375 11.242188 -24.65625 12.734375 -24.65625 Z M 17.75 -24.65625 "/></g></g></g><g fill="#000000" fill-opacity="1"><g transform="translate(111.043686, 122.016075)"><g><path d="M 28.90625 0 L 20.796875 0 L 20.796875 -11.5625 C 20.796875 -13.59375 20.320312 -15.148438 19.375 -16.234375 C 18.425781 -17.316406 16.988281 -17.859375 15.0625 -17.859375 C 14.320312 -17.859375 13.613281 -17.710938 12.9375 -17.421875 C 12.257812 -17.128906 11.664062 -16.75 11.15625 -16.28125 C 10.644531 -15.8125 10.238281 -15.242188 9.9375 -14.578125 C 9.632812 -13.921875 9.484375 -13.222656 9.484375 -12.484375 C 9.484375 -10.753906 10 -9.375 11.03125 -8.34375 C 12.0625 -7.3125 13.351562 -6.796875 14.90625 -6.796875 C 15.65625 -6.796875 16.347656 -6.863281 16.984375 -7 C 17.628906 -7.132812 18.222656 -7.300781 18.765625 -7.5 L 18.765625 -0.8125 C 17.984375 -0.269531 17.15625 0.0976562 16.28125 0.296875 C 15.40625 0.503906 14.40625 0.609375 13.28125 0.609375 C 11.757812 0.609375 10.28125 0.296875 8.84375 -0.328125 C 7.40625 -0.953125 6.132812 -1.832031 5.03125 -2.96875 C 3.9375 -4.101562 3.050781 -5.457031 2.375 -7.03125 C 1.707031 -8.601562 1.375 -10.351562 1.375 -12.28125 C 1.375 -14.101562 1.707031 -15.800781 2.375 -17.375 C 3.050781 -18.945312 3.984375 -20.316406 5.171875 -21.484375 C 6.359375 -22.648438 7.78125 -23.570312 9.4375 -24.25 C 11.09375 -24.925781 12.914062 -25.265625 14.90625 -25.265625 C 17.039062 -25.265625 18.96875 -24.96875 20.6875 -24.375 C 22.414062 -23.78125 23.890625 -22.957031 25.109375 -21.90625 C 26.328125 -20.863281 27.265625 -19.625 27.921875 -18.1875 C 28.578125 -16.75 28.90625 -15.179688 28.90625 -13.484375 Z M 28.90625 0 "/></g></g></g><g fill="#000000" fill-opacity="1"><g transform="translate(142.034972, 122.016075)"><g><path d="M 9.78125 -30.734375 L 9.78125 -24.859375 L 15.515625 -24.859375 L 15.515625 -17.453125 L 9.734375 -17.453125 L 9.734375 -10.859375 C 9.734375 -9.566406 10.007812 -8.664062 10.5625 -8.15625 C 11.125 -7.65625 12.234375 -7.40625 13.890625 -7.40625 C 14.160156 -7.40625 14.429688 -7.410156 14.703125 -7.421875 C 14.972656 -7.441406 15.28125 -7.46875 15.625 -7.5 L 15.625 0 L 10.859375 0 C 9.472656 0 8.226562 -0.207031 7.125 -0.625 C 6.03125 -1.050781 5.097656 -1.648438 4.328125 -2.421875 C 3.566406 -3.203125 2.972656 -4.132812 2.546875 -5.21875 C 2.128906 -6.300781 1.921875 -7.503906 1.921875 -8.828125 L 1.921875 -30.734375 Z M 9.78125 -30.734375 "/></g></g></g><g fill="#000000" fill-opacity="1"><g transform="translate(158.92548, 122.016075)"><g><path d="M 11.671875 -31.5 C 11.671875 -30.175781 11.222656 -29.070312 10.328125 -28.1875 C 9.429688 -27.3125 8.335938 -26.875 7.046875 -26.875 C 5.765625 -26.875 4.675781 -27.3125 3.78125 -28.1875 C 2.882812 -29.070312 2.4375 -30.175781 2.4375 -31.5 C 2.4375 -32.8125 2.882812 -33.90625 3.78125 -34.78125 C 4.675781 -35.664062 5.765625 -36.109375 7.046875 -36.109375 C 8.335938 -36.109375 9.429688 -35.664062 10.328125 -34.78125 C 11.222656 -33.90625 11.671875 -32.8125 11.671875 -31.5 Z M 11.109375 -24.65625 L 11.109375 0 L 3 0 L 3 -24.65625 Z M 11.109375 -24.65625 "/></g></g></g><g fill="#000000" fill-opacity="1"><g transform="translate(173.026259, 122.016075)"><g><path d="M 16.53125 -35.5 L 16.53125 -28.09375 L 12.6875 -28.09375 C 11.832031 -28.09375 11.210938 -27.847656 10.828125 -27.359375 C 10.441406 -26.867188 10.25 -26.035156 10.25 -24.859375 L 16.53125 -24.859375 L 16.53125 -17.453125 L 10.25 -17.453125 L 10.25 0 L 2.125 0 L 2.125 -26.734375 C 2.125 -27.984375 2.367188 -29.144531 2.859375 -30.21875 C 3.347656 -31.300781 4.023438 -32.234375 4.890625 -33.015625 C 5.753906 -33.796875 6.785156 -34.40625 7.984375 -34.84375 C 9.179688 -35.28125 10.476562 -35.5 11.875 -35.5 Z M 16.53125 -35.5 "/></g></g></g><g fill="#000000" fill-opacity="1"><g transform="translate(189.916767, 122.016075)"><g><path d="M 9.84375 -24.65625 L 9.84375 -10.25 C 9.84375 -9.300781 10.0625 -8.503906 10.5 -7.859375 C 10.9375 -7.210938 11.695312 -6.890625 12.78125 -6.890625 C 13.382812 -6.890625 13.863281 -6.988281 14.21875 -7.1875 C 14.582031 -7.394531 14.851562 -7.675781 15.03125 -8.03125 C 15.21875 -8.394531 15.34375 -8.785156 15.40625 -9.203125 C 15.476562 -9.628906 15.515625 -10.078125 15.515625 -10.546875 L 15.515625 -24.65625 L 23.328125 -24.65625 L 23.328125 -8.625 C 23.328125 -6.457031 22.773438 -4.617188 21.671875 -3.109375 C 20.578125 -1.609375 18.96875 -0.503906 16.84375 0.203125 L 16.84375 10.65625 L 8.71875 10.65625 L 8.71875 0.203125 C 4.257812 -1.148438 2.03125 -4.09375 2.03125 -8.625 L 2.03125 -24.65625 Z M 9.84375 -24.65625 "/></g></g></g></svg>